<?xml version="1.0" encoding="utf-8"?>
<!-- Generator: Adobe Illustrator 27.9.3, SVG Export Plug-In . SVG Version: 9.03 Build 53313)  -->
<svg version="1.1" xmlns="http://www.w3.org/2000/svg" xmlns:xlink="http://www.w3.org/1999/xlink" x="0px" y="0px"
	 viewBox="0 0 206.2 142.9" style="enable-background:new 0 0 206.2 142.9;" xml:space="preserve">
<style type="text/css">
	.st0{display:none;}
	.st1{fill:#302A2A;}
	.st2{fill:#F4EAEA;}
</style>
<g id="Layer_1" class="st0">
	
		<image style="display:inline;overflow:visible;opacity:0.3;" width="916" height="649" xlink:href="921047C6.jpg"  transform="matrix(0.2311 0 0 0.2311 -7.6045 -4.2445)">
	</image>
</g>
<g id="Layer_2">
</g>
<g id="Layer_3">
	<g>
		<g>
			<g>
				<path class="st1" d="M134.1,72.7c-5.1,0-9.3-1.7-12.4-4.8c-3.8-3.9-5.6-9.9-5.4-17.8c0.5-18.4,3.9-32.1,10.1-40.9
					c3.2-4.5,8.4-7.3,14-7.3c3.9,0,7.5,1.3,10.5,3.7c16.1,12.8,12.7,38.5,10.5,48.9C159.5,63.8,146,72.7,134.1,72.7
					C134.1,72.7,134.1,72.7,134.1,72.7z M142.3,15.9c-2.9,0-5.2,2.2-5.5,5c-0.3,3.1,1.9,5.8,5,6.1c0.2,0,0.4,0,0.6,0
					c2.9,0,5.2-2.2,5.5-5c0.1-1.5-0.3-2.9-1.2-4.1c-0.9-1.2-2.3-1.9-3.8-2C142.7,16,142.5,15.9,142.3,15.9z"/>
				<path class="st2" d="M140.3,4c3.3,0,6.5,1.1,9.3,3.3c15.1,12,12,36.7,9.8,47c-1.7,8.2-14.5,16.5-25.3,16.5
					c-8.7,0-16.2-5.4-15.8-20.6c0.6-21.4,5.1-33.3,9.7-39.8C131,6.2,135.6,4,140.3,4 M142.3,29.1c3.8,0,7.1-2.9,7.5-6.8
					c0.4-4.2-2.6-7.9-6.8-8.3c-0.3,0-0.5,0-0.8,0c-3.8,0-7.1,2.9-7.5,6.8c-0.4,4.2,2.6,7.9,6.8,8.3
					C141.8,29.1,142.1,29.1,142.3,29.1 M140.3,0c-6.2,0-12,3-15.6,8.1c-6.4,9.1-9.9,23.2-10.4,42c-0.2,8.5,1.8,15,6,19.3
					c3.4,3.5,8.2,5.4,13.8,5.4c12.9,0,27.1-9.6,29.2-19.7c2.3-10.8,5.7-37.4-11.2-50.9C148.7,1.4,144.7,0,140.3,0L140.3,0z
					 M142.3,25.1c-0.1,0-0.2,0-0.4,0c-0.9-0.1-1.8-0.6-2.4-1.3c-0.6-0.7-0.9-1.7-0.8-2.6c0.2-1.8,1.7-3.2,3.5-3.2c0.1,0,0.2,0,0.4,0
					c2,0.2,3.4,2,3.2,3.9C145.7,23.7,144.2,25.1,142.3,25.1L142.3,25.1z"/>
			</g>
			<g>
				<path class="st1" d="M90.7,75.5c-4.9,0-16.4-2-17.8-20.9c-1.3-18.3,0.7-32.4,5.9-41.7c3-5.4,8.7-8.7,14.9-8.7
					c3.2,0,6.4,0.9,9.2,2.7c17.3,11.1,16.5,37,15.4,47.7C117.2,64.6,102.8,75.5,90.7,75.5C90.7,75.5,90.7,75.5,90.7,75.5z M95.9,18
					c-3.1,0-5.6,2.5-5.6,5.6c0,3.1,2.5,5.6,5.6,5.6s5.6-2.5,5.6-5.6C101.5,20.5,99,18,95.9,18z"/>
				<path class="st2" d="M93.7,6.3c2.8,0,5.6,0.8,8.1,2.4C118,19.1,117.4,44,116.2,54.5c-1,8.8-14.2,19.1-25.5,19.1
					c-7.9,0-14.8-5-15.8-19c-1.6-21.4,1.8-33.6,5.7-40.5C83.4,9.1,88.5,6.3,93.7,6.3 M95.9,31.2c4.2,0,7.6-3.4,7.6-7.6
					s-3.4-7.6-7.6-7.6s-7.6,3.4-7.6,7.6S91.7,31.2,95.9,31.2 M93.7,2.3C86.9,2.3,80.5,6,77.1,12c-5.5,9.7-7.6,24.1-6.2,42.8
					c1.5,20.5,14.3,22.7,19.8,22.7c13.2,0,28.3-11.6,29.5-22.6c1.2-11,2-37.8-16.3-49.6C100.9,3.4,97.3,2.3,93.7,2.3L93.7,2.3z
					 M95.9,27.2c-2,0-3.6-1.6-3.6-3.6S94,20,95.9,20c2,0,3.6,1.6,3.6,3.6S97.9,27.2,95.9,27.2L95.9,27.2z"/>
			</g>
			<g>
				<path class="st1" d="M47.5,85c-2.5,0-4.8-0.5-7-1.6c-14.9-7.3-19.7-42.5-21.1-57.3c-0.4-4,1.2-8,4.2-10.5
					C35.1,5.8,52.9,2.1,61.4,2.1c3.2,0,5.5,0.5,6.9,1.3c6.5,4.2,5.3,17.4,3.8,21.7c-1.6,4.5-13.7,6.4-20.5,7.1v1.9
					c2.4-0.9,5.8-1.9,8.6-1.9c1.2,0,2.2,0.2,3,0.5c4.6,1.9,5.7,10.4,5.9,12.4c0.4,1.9,0.1,3.6-1,5c-1.6,2-4.3,2.9-6.6,3.4
					c9.2,15.7,7.7,19.1,7.3,20.2c-0.3,0.7-0.8,1.2-1.2,1.4C66.1,76.8,57.2,85,47.5,85z"/>
				<path class="st2" d="M61.4,4.1c2.7,0,4.7,0.3,5.8,1c5.2,3.4,4.5,15.1,3,19.4c-1.5,4.2-20.6,6-20.6,6v6.7c0,0,6.3-2.9,10.6-2.9
					c0.9,0,1.6,0.1,2.3,0.4c3.8,1.6,4.7,10.9,4.7,10.9c1.5,6.2-8.9,6.4-8.9,6.4c12.5,20.7,8.2,21.6,8.2,21.6S57.3,83,47.5,83
					c-2,0-4.1-0.4-6.1-1.4c-14.2-6.9-18.8-42.6-20-55.7c-0.3-3.3,1-6.6,3.5-8.8C35.3,8.2,52.2,4.1,61.4,4.1 M61.4,0.1
					C50.4,0.1,33,5,22.3,14c-3.5,3-5.3,7.6-4.9,12.2c1.7,18.8,6.9,51.4,22.2,58.9c2.4,1.2,5.1,1.8,7.9,1.8
					c10.2,0,19.4-8.2,21.4-10.1c0.8-0.5,1.4-1.3,1.8-2.2c1.1-2.6,1.1-7-6.1-19.7c1.9-0.7,3.8-1.7,5.1-3.4c1-1.3,2.1-3.5,1.4-6.5
					c-0.3-2.8-1.4-10.2-5.8-13.2c5.1-1.5,7.6-3.3,8.6-5.9c1.8-5.1,3-19.2-4.6-24.1C67.6,0.6,65,0.1,61.4,0.1L61.4,0.1z"/>
			</g>
		</g>
		<g>
			<g>
				<path class="st1" d="M134.1,72.8c-5.1,0-9.3-1.7-12.4-4.8c-3.8-3.9-5.6-9.9-5.4-17.8c0.5-18.4,3.9-32.1,10.1-40.9
					c3.2-4.5,8.4-7.3,14-7.3c3.9,0,7.5,1.3,10.5,3.7c16.1,12.8,12.7,38.5,10.5,48.9C159.5,63.8,146,72.8,134.1,72.8
					C134.1,72.8,134.1,72.8,134.1,72.8z M142.3,16c-2.9,0-5.2,2.2-5.5,5c-0.1,1.5,0.3,2.9,1.2,4.1c0.9,1.2,2.3,1.9,3.8,2
					c0.2,0,0.4,0,0.6,0c2.9,0,5.2-2.2,5.5-5c0.1-1.5-0.3-2.9-1.2-4.1c-0.9-1.2-2.3-1.9-3.8-2C142.7,16,142.5,16,142.3,16z"/>
				<path class="st2" d="M140.3,4c3.3,0,6.5,1.1,9.3,3.3c15.1,12,12,36.7,9.8,47c-1.7,8.2-14.5,16.5-25.3,16.5
					c-8.7,0-16.2-5.4-15.8-20.6c0.6-21.4,5.1-33.3,9.7-39.8C131,6.3,135.6,4,140.3,4 M142.3,29.1c3.8,0,7.1-2.9,7.5-6.8
					c0.4-4.2-2.6-7.9-6.8-8.3c-0.3,0-0.5,0-0.8,0c-3.8,0-7.1,2.9-7.5,6.8c-0.4,4.2,2.6,7.9,6.8,8.3
					C141.8,29.1,142.1,29.1,142.3,29.1 M140.3,0c-6.2,0-12,3-15.6,8.1c-6.4,9.1-9.9,23.2-10.4,42c-0.2,8.5,1.8,15,6,19.3
					c3.4,3.5,8.2,5.4,13.8,5.4c12.9,0,27.1-9.6,29.2-19.7c2.3-10.8,5.7-37.4-11.2-50.9C148.7,1.5,144.7,0,140.3,0L140.3,0z
					 M142.3,25.1c-0.1,0-0.2,0-0.4,0c-0.9-0.1-1.8-0.6-2.4-1.3c-0.6-0.7-0.9-1.7-0.8-2.6c0.2-1.8,1.7-3.2,3.5-3.2c0.1,0,0.2,0,0.4,0
					c2,0.2,3.4,2,3.2,3.9C145.7,23.8,144.2,25.1,142.3,25.1L142.3,25.1z"/>
			</g>
			<g>
				<path class="st1" d="M90.7,75.6c-4.9,0-16.4-2-17.8-20.9c-1.3-18.3,0.7-32.4,5.9-41.7c3-5.4,8.7-8.7,14.9-8.7
					c3.2,0,6.4,0.9,9.2,2.7c17.3,11.1,16.5,37,15.4,47.7C117.2,64.7,102.8,75.6,90.7,75.6C90.7,75.6,90.7,75.6,90.7,75.6z
					 M95.9,18.1c-3.1,0-5.6,2.5-5.6,5.6c0,3.1,2.5,5.6,5.6,5.6s5.6-2.5,5.6-5.6C101.5,20.6,99,18.1,95.9,18.1z"/>
				<path class="st2" d="M93.7,6.4c2.8,0,5.6,0.8,8.1,2.4C118,19.1,117.4,44,116.2,54.5c-1,8.8-14.2,19.1-25.5,19.1
					c-7.9,0-14.8-5-15.8-19C73.3,33.2,76.7,21,80.6,14C83.4,9.1,88.5,6.4,93.7,6.4 M95.9,31.2c4.2,0,7.6-3.4,7.6-7.6
					s-3.4-7.6-7.6-7.6s-7.6,3.4-7.6,7.6S91.7,31.2,95.9,31.2 M93.7,2.4c-6.9,0-13.2,3.7-16.6,9.7c-5.5,9.7-7.6,24.1-6.2,42.8
					c1.5,20.5,14.3,22.7,19.8,22.7c13.2,0,28.3-11.6,29.5-22.6c1.2-11,2-37.8-16.3-49.6C100.9,3.4,97.3,2.4,93.7,2.4L93.7,2.4z
					 M95.9,27.2c-2,0-3.6-1.6-3.6-3.6s1.6-3.6,3.6-3.6c2,0,3.6,1.6,3.6,3.6S97.9,27.2,95.9,27.2L95.9,27.2z"/>
			</g>
			<g>
				<path class="st1" d="M47.5,85c-2.5,0-4.8-0.5-7-1.6c-14.9-7.3-19.7-42.5-21.1-57.3c-0.4-4,1.2-8,4.2-10.5
					C35.1,5.8,52.9,2.1,61.4,2.1c3.2,0,5.5,0.5,6.9,1.3c6.5,4.2,5.3,17.4,3.8,21.7c-1.6,4.5-13.7,6.4-20.5,7.1v1.9
					c2.4-0.9,5.8-1.9,8.6-1.9c1.2,0,2.2,0.2,3,0.5c4.6,1.9,5.7,10.4,5.9,12.4c0.4,1.9,0.1,3.6-1,5c-1.6,2-4.3,2.9-6.6,3.4
					c9.2,15.7,7.7,19.1,7.3,20.2c-0.3,0.7-0.8,1.2-1.2,1.4C66.1,76.8,57.2,85,47.5,85z"/>
				<path class="st2" d="M61.4,4.1c2.7,0,4.7,0.3,5.8,1c5.2,3.4,4.5,15.1,3,19.4c-1.5,4.2-20.6,6-20.6,6v6.7c0,0,6.3-2.9,10.6-2.9
					c0.9,0,1.6,0.1,2.3,0.4c3.8,1.6,4.7,10.9,4.7,10.9c1.5,6.2-8.9,6.4-8.9,6.4c12.5,20.7,8.2,21.6,8.2,21.6S57.3,83,47.5,83
					c-2,0-4.1-0.4-6.1-1.4c-14.2-6.9-18.8-42.6-20-55.7c-0.3-3.3,1-6.6,3.5-8.8C35.3,8.3,52.2,4.1,61.4,4.1 M61.4,0.1
					C50.4,0.1,33,5,22.3,14.1c-3.5,3-5.3,7.6-4.9,12.2c1.7,18.8,6.9,51.4,22.2,58.9c2.4,1.2,5.1,1.8,7.9,1.8
					c10.2,0,19.4-8.2,21.4-10.1c0.8-0.5,1.4-1.3,1.8-2.2c1.1-2.6,1.1-7-6.1-19.7c1.9-0.7,3.8-1.7,5.1-3.4c1-1.3,2.1-3.5,1.4-6.5
					c-0.3-2.8-1.4-10.2-5.8-13.2c5.1-1.5,7.6-3.3,8.6-5.9c1.8-5.1,3-19.2-4.6-24.1C67.6,0.7,65,0.1,61.4,0.1L61.4,0.1z"/>
			</g>
		</g>
		<g>
			<g>
				<path class="st2" d="M30.1,138.6c-2.5,0-4.8-0.5-7-1.6C8.2,129.7,3.4,94.5,2.1,79.7c-0.4-4,1.2-8,4.2-10.5
					C17.8,59.4,35.5,55.7,44,55.7c3.2,0,5.5,0.5,6.9,1.3c6.5,4.2,5.3,17.4,3.8,21.7c-1.6,4.5-13.7,6.4-20.5,7.1v1.9
					c2.4-0.9,5.8-1.9,8.6-1.9c1.2,0,2.2,0.2,3,0.5c4.6,1.9,5.7,10.4,5.9,12.4c0.4,1.9,0.1,3.6-1,5c-1.6,2-4.3,2.9-6.6,3.4
					c9.2,15.7,7.7,19.1,7.3,20.2c-0.3,0.7-0.8,1.2-1.2,1.4C48.7,130.4,39.9,138.6,30.1,138.6z"/>
				<path class="st2" d="M44,57.7c2.7,0,4.7,0.3,5.8,1c5.2,3.4,4.5,15.1,3,19.4c-1.5,4.2-20.6,6-20.6,6v6.7c0,0,6.3-2.9,10.6-2.9
					c0.9,0,1.6,0.1,2.3,0.4c3.8,1.6,4.7,10.9,4.7,10.9c1.5,6.2-8.9,6.4-8.9,6.4c12.5,20.7,8.2,21.6,8.2,21.6s-9.2,9.3-18.9,9.3
					c-2,0-4.1-0.4-6.1-1.4C9.8,128.3,5.3,92.7,4,79.5c-0.3-3.3,1-6.6,3.5-8.8C17.9,61.9,34.8,57.7,44,57.7 M44,53.7
					c-11,0-28.5,4.9-39.1,13.9c-3.5,3-5.3,7.6-4.9,12.2c1.7,18.8,6.9,51.4,22.2,58.9c2.4,1.2,5.1,1.8,7.9,1.8
					c10.2,0,19.4-8.2,21.4-10.1c0.8-0.5,1.4-1.3,1.8-2.2c1.1-2.6,1.1-7-6.1-19.7c1.9-0.7,3.8-1.7,5.1-3.4c1-1.3,2.1-3.5,1.4-6.5
					c-0.3-2.8-1.4-10.2-5.8-13.2c5.1-1.5,7.6-3.3,8.6-5.9c1.8-5.1,3-19.2-4.6-24.1C50.3,54.3,47.7,53.7,44,53.7L44,53.7z"/>
			</g>
			<g>
				<path class="st2" d="M84.1,126.4c-4,0-7.7-0.5-10.7-1.4c-10.3-3.1-12.2-10-14.9-19.5c-0.6-2.2-1.2-4.4-2-6.9
					c-2.8-8.5-2.5-20.4-1.7-28.8c0.5-5.9,4.9-10.5,10.7-11.4c2.3-0.3,4.9-0.5,7.7-0.5c2.6,0,5.2,0.1,7.7,0.3
					c1.9,0.1,3.6,0.2,5.3,0.2c3.6,0.1,6.7,1.4,8.9,3.9c2.6,3.1,3.8,7.8,3.1,12.6c-0.5,4-4.9,6.5-9.2,8.1c2.6,1.2,4.8,3,5.6,6
					c0.7,2.5,0.4,4.8-0.7,6.8c-0.2,0.3-0.4,0.6-0.6,0.9c1.1,0,2.3,0.1,3.5,0.1c3.7,0.2,6.6,1.4,8.6,3.7c3.4,3.8,3.6,9.6,3.2,15.2
					C108,122.7,95.6,126.4,84.1,126.4z"/>
				<path class="st2" d="M73.1,60c4.6,0,9,0.4,12.9,0.5c8.3,0.1,11,7.9,10.1,14.3c-0.9,6.4-16.5,8.4-16.5,8.4s11.2,0,12.9,6.4
					c1.7,6.6-4.6,8.8-7,9.4c-0.7,0.1-0.9,0.2-0.9,0.2s0.4-0.1,0.9-0.2c0.8-0.1,2.3-0.2,4.9-0.2c1.6,0,3.6,0,6.1,0.2
					c10.2,0.5,10.4,9.6,9.9,16.8c-0.3,5.3-11.8,8.7-22.4,8.7c-3.7,0-7.2-0.4-10.2-1.3c-11.4-3.4-11.3-11.9-15.6-25.1
					c-2.7-8.4-2.3-20.4-1.6-28c0.4-4.9,4.1-8.9,9-9.6C68.1,60.1,70.6,60,73.1,60 M73.1,56c-2.9,0-5.6,0.2-8,0.5
					c-6.7,1-11.8,6.4-12.4,13.2c-0.7,8.6-1,20.8,1.8,29.6c0.8,2.4,1.4,4.6,2,6.8c2.6,9.4,4.9,17.5,16.2,20.9c3.2,1,7.1,1.5,11.3,1.5
					c10.3,0,25.8-3.3,26.4-12.5c0.4-6.1,0.2-12.3-3.7-16.7c-2.4-2.7-5.7-4.1-10-4.3c-0.1,0-0.3,0-0.4,0c0.5-1.6,0.7-3.7,0.1-6.3
					c-0.6-2.2-1.8-3.9-3.3-5.2c4.1-2.1,6.5-4.8,6.9-8.1c0.7-5.4-0.6-10.7-3.6-14.2c-2.5-3-6.1-4.6-10.4-4.6c-1.6,0-3.4-0.1-5.2-0.2
					C78.3,56.1,75.8,56,73.1,56L73.1,56z"/>
			</g>
			<g>
				<path class="st2" d="M127.6,125.5c-13.4,0-20.5-9.3-21.4-17.9c-0.2-1.9,0.3-3.6,1.6-5.1c1.5-1.7,3.8-3,6.4-3.9
					c-5.8-2.4-11.8-7.5-13.7-18.3c-1.3-8-0.2-14.1,3.4-18.3c3.5-4.1,9.2-6.2,16.8-6.2c2,0,4.1,0.1,6.2,0.4
					c6.3,0.8,11.2,3.9,13.9,8.7c2.4,4.4,2.7,9.7,0.8,14.1c-1,2.2-3.3,3.9-6.8,4.8c14.6,5.3,16.9,14.9,17.1,19.5
					c0.5,9.8-6.7,19.1-16.3,21.3C132.8,125.1,130.1,125.5,127.6,125.5C127.6,125.5,127.6,125.5,127.6,125.5z"/>
				<path class="st2" d="M120.7,57.7c2,0,4,0.2,6,0.4c12.8,1.6,16.3,12.9,13.1,19.9c-1.7,3.8-8.7,4.7-14.6,4.7c-1.3,0-2.6,0-3.8-0.1
					c-1.7-0.2-3.6-0.4-5.5-0.5c0,0,2.3,0.3,5.5,0.5c40.2,5,31.3,35.9,13.8,39.9c-2.7,0.6-5.2,0.9-7.5,0.9
					c-12.9,0-18.7-9.1-19.4-16.2c-0.7-6.9,12.5-8.4,16.9-8.7c0.9,0,1.4-0.1,1.4-0.1s-0.5,0-1.4,0.1c-0.2,0-0.3,0-0.5,0
					c-5.2,0-19.3-1.6-22.1-18.6C99.5,62.3,109.7,57.7,120.7,57.7 M120.7,53.7C120.7,53.7,120.7,53.7,120.7,53.7
					c-8.3,0-14.5,2.3-18.4,6.9c-4,4.7-5.2,11.4-3.8,20c1.6,9.3,6.1,14.7,11,17.8c-1.3,0.7-2.4,1.6-3.3,2.7c-1.6,1.9-2.3,4.2-2,6.6
					c1,9.5,8.8,19.7,23.4,19.7c2.6,0,5.5-0.3,8.4-1c10.6-2.4,18.4-12.7,17.9-23.4c-0.3-6-3.2-11.4-8.3-15.6
					c-1.7-1.4-3.6-2.6-5.8-3.7c1.7-1.1,2.8-2.4,3.6-4c2.2-4.9,1.9-11-0.8-15.9c-3-5.4-8.5-8.8-15.4-9.7
					C124.9,53.9,122.7,53.7,120.7,53.7L120.7,53.7L120.7,53.7z"/>
			</g>
			<g>
				<path class="st2" d="M175.1,129.3c-4.5,0-9.8-0.7-13.4-1.3c-4.8-0.7-8.7-4.5-9.7-9.3c-0.8-3.6-0.3-7.4,1.4-11.4
					c3.4-8.1,4.7-16.2,5.2-20l-6.6,0c-0.8,0-1.5,0-2.2,0.1c-0.6,0.1-1.2,0.1-1.8,0.1c-2.5,0-4.6-0.9-5.8-2.5
					c-1.6-2.1-1.9-5.2-0.9-9.3c0.4-1.6,0.7-3,1-4.3c1.9-8.1,3.1-12.9,11-12.9c0.5,0,1,0,1.6,0.1c7.8,0.5,28.3,3.1,34.4,3.8
					c1,0.1,2,0.2,2.8,0.3c2.2,0.2,6.2,0.9,8.6,4c1.6,2.1,2.2,4.9,1.5,8.3c-1.9,9.7-2,11.4-2,11.4l0,0.2c-0.3,2.2-2.3,6.5-7.4,6.5h0
					c-1.4,0-3-0.3-4.7-1c-1-0.4-2.2-0.9-3.5-1.2l-4.1-1.1l6.6,20.5c0.1,0.4,3.1,9.7-3.1,16.7C182.8,128.6,179.9,129.3,175.1,129.3z"
					/>
				<path class="st2" d="M153.5,60.5c0.5,0,0.9,0,1.4,0c7.7,0.5,28,3,34.3,3.8c1,0.1,1.9,0.2,2.9,0.3c2.8,0.2,9.9,1.5,8.3,9.9
					c-2,10.3-2,11.7-2,11.7S197.7,91,193,91c-1.1,0-2.4-0.2-3.9-0.9c-1.2-0.5-2.4-0.9-3.7-1.3l-7.7-2l7.8,24c0,0,2.8,8.6-2.7,14.7
					c-1.1,1.3-4.1,1.7-7.6,1.7c-4.4,0-9.6-0.7-13.1-1.2c-3.9-0.6-7.2-3.7-8.1-7.8c-0.6-2.7-0.5-6.1,1.3-10.2
					c4.8-11.3,5.5-22.8,5.5-22.8l-8.8,0c0,0,0,0,0,0c-0.8,0-1.6,0-2.4,0.2c-0.4,0.1-0.9,0.1-1.5,0.1c-2.8,0-6.8-1.3-4.8-9.4
					C146.2,65.1,146,60.5,153.5,60.5 M153.5,56.5c-9.6,0-11.1,6.4-13,14.5c-0.3,1.3-0.6,2.7-1,4.3c-1.2,4.7-0.8,8.5,1.2,11.1
					c1.6,2.1,4.3,3.3,7.4,3.3c0.7,0,1.4-0.1,2.1-0.2c0.5-0.1,1.2-0.1,1.9-0.1l4.3,0c-0.6,4.1-2,10.7-4.7,17.2
					c-1.9,4.4-2.4,8.6-1.5,12.6c1.2,5.6,5.8,10,11.4,10.9c3.7,0.6,9.1,1.3,13.7,1.3c5.5,0,8.7-0.9,10.6-3.1
					c6.9-7.8,3.6-18.2,3.5-18.6l-5.5-17l0.6,0.2c1.1,0.3,2.3,0.7,3.2,1.1c1.9,0.8,3.7,1.1,5.4,1.1c6.5,0,9-5.4,9.4-8.2l0.1-0.3
					l0-0.1c0.1-0.5,0.4-2.9,2-11.1c0.9-4.9-0.5-8.1-1.9-9.9c-2.9-3.7-7.5-4.6-10.1-4.7c-0.8-0.1-1.8-0.1-2.7-0.2
					c-6.1-0.8-26.7-3.3-34.5-3.9C154.6,56.5,154,56.5,153.5,56.5L153.5,56.5z"/>
			</g>
		</g>
		<g>
			<path class="st1" d="M176.7,131.6c-4.5,0-9.8-0.7-13.4-1.3c-4.8-0.7-8.7-4.5-9.7-9.3c-0.8-3.6-0.3-7.4,1.4-11.4
				c3.4-8,4.7-16.2,5.2-20l-6.6,0c-0.8,0-1.5,0-2.2,0.1c-0.6,0.1-1.2,0.1-1.8,0.1c-2.5,0-4.6-0.9-5.8-2.5c-1.6-2.1-1.9-5.2-0.9-9.3
				c0.4-1.6,0.7-3,1-4.3c1.9-8.1,3.1-12.9,11-12.9c0.5,0,1,0,1.6,0.1c7.8,0.5,28.3,3.1,34.4,3.8c1,0.1,2,0.2,2.8,0.3
				c2.2,0.2,6.2,0.9,8.6,4c1.6,2.1,2.2,4.9,1.5,8.3c-1.9,9.7-2,11.4-2,11.4l0,0.2c-0.3,2.2-2.3,6.5-7.4,6.5c-1.4,0-3-0.3-4.7-1
				c-1-0.4-2.2-0.9-3.5-1.2l-4.1-1.1l6.6,20.5c0.1,0.4,3.1,9.7-3.1,16.7C184.4,130.8,181.5,131.6,176.7,131.6z"/>
			<path class="st2" d="M155,62.8c0.5,0,0.9,0,1.4,0c7.7,0.5,28,3,34.3,3.8c1,0.1,1.9,0.2,2.9,0.3c2.8,0.2,9.9,1.5,8.3,9.9
				c-2,10.3-2,11.7-2,11.7s-0.7,4.8-5.4,4.8c-1.1,0-2.4-0.2-3.9-0.9c-1.2-0.5-2.4-0.9-3.7-1.3l-7.7-2l7.8,24c0,0,2.8,8.6-2.7,14.7
				c-1.1,1.3-4.1,1.7-7.6,1.7c-4.4,0-9.6-0.7-13.1-1.2c-3.9-0.6-7.2-3.7-8.1-7.8c-0.6-2.7-0.5-6.1,1.3-10.2
				c4.8-11.3,5.5-22.8,5.5-22.8l-8.8,0c0,0,0,0,0,0c-0.8,0-1.6,0-2.4,0.2c-0.4,0.1-0.9,0.1-1.5,0.1c-2.8,0-6.8-1.3-4.8-9.4
				C147.7,67.3,147.6,62.8,155,62.8 M155,58.8c-9.6,0-11.1,6.4-13,14.5c-0.3,1.3-0.6,2.7-1,4.3c-1.2,4.7-0.8,8.5,1.2,11.1
				c1.6,2.1,4.3,3.3,7.4,3.3c0.7,0,1.4-0.1,2.1-0.2c0.5-0.1,1.2-0.1,1.9-0.1l4.3,0c-0.6,4.1-2,10.7-4.7,17.2
				c-1.9,4.4-2.4,8.6-1.5,12.6c1.2,5.6,5.8,10,11.4,10.9c3.7,0.6,9.1,1.3,13.7,1.3c5.5,0,8.7-0.9,10.6-3.1
				c6.9-7.8,3.6-18.2,3.5-18.6l-5.5-17l0.6,0.2c1.1,0.3,2.3,0.7,3.2,1.1c1.9,0.8,3.7,1.1,5.4,1.1c6.5,0,9-5.4,9.4-8.2l0.1-0.3l0-0.1
				c0.1-0.5,0.4-2.9,2-11.1c0.9-4.9-0.5-8.1-1.9-9.9c-2.9-3.7-7.5-4.6-10.1-4.7c-0.8-0.1-1.8-0.1-2.7-0.2
				c-6.1-0.8-26.7-3.3-34.5-3.9C156.1,58.8,155.6,58.8,155,58.8L155,58.8z"/>
		</g>
		<g>
			<path class="st1" d="M129.2,127.7c-13.4,0-20.5-9.3-21.4-17.9c-0.2-1.9,0.3-3.6,1.6-5.1c1.5-1.7,3.8-3,6.4-3.9
				c-5.8-2.4-11.8-7.5-13.7-18.3c-1.3-8-0.2-14.1,3.4-18.3c3.5-4.1,9.2-6.2,16.8-6.2c2,0,4.1,0.1,6.2,0.4c6.3,0.8,11.2,3.9,13.9,8.7
				c2.4,4.4,2.7,9.7,0.8,14c-1,2.2-3.3,3.9-6.8,4.8c14.6,5.3,16.9,14.9,17.1,19.5c0.5,9.8-6.7,19.1-16.3,21.3
				C134.4,127.4,131.7,127.7,129.2,127.7C129.2,127.7,129.2,127.7,129.2,127.7z"/>
			<path class="st2" d="M122.2,60c2,0,4,0.2,6,0.4c12.8,1.6,16.3,12.9,13.1,19.9c-1.7,3.8-8.7,4.7-14.6,4.7c-1.3,0-2.6,0-3.8-0.1
				c-1.7-0.2-3.6-0.4-5.5-0.5c0,0,2.3,0.3,5.5,0.5c40.2,5,31.3,35.9,13.8,39.9c-2.7,0.6-5.2,0.9-7.5,0.9c-12.9,0-18.7-9.1-19.4-16.2
				c-0.7-6.9,12.5-8.4,16.9-8.7c0.9,0,1.4-0.1,1.4-0.1s-0.5,0-1.4,0.1c-0.2,0-0.3,0-0.5,0c-5.2,0-19.3-1.6-22.1-18.6
				C101.1,64.5,111.3,60,122.2,60 M122.2,56C122.2,56,122.2,56,122.2,56c-8.3,0-14.5,2.3-18.4,6.9c-4,4.7-5.2,11.4-3.8,20
				c1.6,9.3,6.1,14.7,11,17.8c-1.3,0.7-2.4,1.6-3.3,2.7c-1.6,1.9-2.3,4.2-2,6.6c1,9.5,8.8,19.7,23.4,19.7c2.6,0,5.5-0.3,8.4-1
				c10.6-2.4,18.4-12.7,17.9-23.4c-0.3-6-3.2-11.4-8.3-15.6c-1.7-1.4-3.6-2.6-5.8-3.7c1.7-1.1,2.8-2.4,3.6-4
				c2.2-4.9,1.9-11-0.8-15.9c-3-5.4-8.5-8.8-15.4-9.7C126.5,56.1,124.3,56,122.2,56L122.2,56L122.2,56z"/>
		</g>
		<g>
			<path class="st1" d="M85.6,128.7c-4,0-7.7-0.5-10.7-1.4c-10.3-3.1-12.2-10-14.9-19.5c-0.6-2.2-1.2-4.4-2-6.9
				c-2.8-8.5-2.5-20.4-1.7-28.8c0.5-5.9,4.9-10.5,10.7-11.4c2.3-0.3,4.9-0.5,7.7-0.5c2.6,0,5.2,0.1,7.7,0.3c1.9,0.1,3.6,0.2,5.3,0.2
				c3.6,0.1,6.7,1.4,8.9,3.9c2.6,3.1,3.8,7.8,3.1,12.6c-0.5,4-4.9,6.5-9.2,8.1c2.6,1.2,4.8,3,5.6,6c0.7,2.5,0.4,4.8-0.7,6.8
				c-0.2,0.3-0.4,0.6-0.6,0.9c1.1,0,2.3,0.1,3.5,0.1c3.7,0.2,6.6,1.4,8.6,3.7c3.4,3.8,3.6,9.6,3.2,15.2
				C109.6,125,97.1,128.7,85.6,128.7z"/>
			<path class="st2" d="M74.6,62.2c4.6,0,9,0.4,12.9,0.5c8.3,0.1,11,7.9,10.1,14.3c-0.9,6.4-16.5,8.4-16.5,8.4s11.2,0,12.9,6.4
				c1.7,6.6-4.6,8.8-7,9.4c-0.7,0.1-0.9,0.2-0.9,0.2s0.4-0.1,0.9-0.2c0.8-0.1,2.3-0.2,4.9-0.2c1.6,0,3.6,0,6.1,0.2
				c10.2,0.5,10.4,9.6,9.9,16.8c-0.3,5.3-11.8,8.7-22.4,8.7c-3.7,0-7.2-0.4-10.2-1.3c-11.4-3.4-11.3-11.9-15.6-25.1
				c-2.7-8.4-2.3-20.4-1.6-28c0.4-4.9,4.1-8.9,9-9.6C69.7,62.4,72.2,62.2,74.6,62.2 M74.6,58.2c-2.9,0-5.6,0.2-8,0.5
				c-6.7,1-11.8,6.4-12.4,13.2c-0.7,8.6-1,20.8,1.8,29.6c0.8,2.4,1.4,4.6,2,6.8c2.6,9.4,4.9,17.5,16.2,20.9c3.2,1,7.1,1.5,11.3,1.5
				c10.3,0,25.8-3.3,26.4-12.5c0.4-6.1,0.2-12.3-3.7-16.7c-2.4-2.7-5.7-4.1-10-4.3c-0.1,0-0.3,0-0.4,0c0.5-1.6,0.7-3.7,0.1-6.3
				c-0.6-2.2-1.8-3.9-3.3-5.2c4.1-2.1,6.5-4.8,6.9-8.1c0.7-5.4-0.6-10.7-3.6-14.2c-2.5-3-6.1-4.6-10.4-4.6c-1.6,0-3.4-0.1-5.2-0.2
				C79.9,58.4,77.3,58.2,74.6,58.2L74.6,58.2z"/>
		</g>
		<g>
			<path class="st1" d="M31.7,140.9c-2.5,0-4.8-0.5-7-1.6C9.8,132,5,96.8,3.6,82c-0.4-4,1.2-8,4.2-10.5C19.3,61.6,37.1,58,45.6,58
				c3.2,0,5.5,0.5,6.9,1.3c6.5,4.2,5.3,17.4,3.8,21.7c-1.6,4.5-13.7,6.4-20.5,7.1v1.9c2.4-0.9,5.8-1.9,8.6-1.9c1.2,0,2.2,0.2,3,0.5
				c4.6,1.9,5.7,10.4,5.9,12.4c0.4,1.9,0.1,3.6-1,5c-1.6,2-4.3,2.9-6.6,3.4c9.2,15.7,7.7,19.1,7.3,20.2c-0.3,0.7-0.8,1.2-1.2,1.4
				C50.3,132.7,41.4,140.9,31.7,140.9z"/>
			<path class="st2" d="M45.6,60c2.7,0,4.7,0.3,5.8,1c5.2,3.4,4.5,15.1,3,19.4c-1.5,4.2-20.6,6-20.6,6V93c0,0,6.3-2.9,10.6-2.9
				c0.9,0,1.6,0.1,2.3,0.4c3.8,1.6,4.7,10.9,4.7,10.9c1.5,6.2-8.9,6.4-8.9,6.4c12.5,20.7,8.2,21.6,8.2,21.6s-9.2,9.3-18.9,9.3
				c-2,0-4.1-0.4-6.1-1.4c-14.2-6.9-18.8-42.6-20-55.7c-0.3-3.3,1-6.6,3.5-8.8C19.5,64.1,36.4,60,45.6,60 M45.6,56
				c-11,0-28.5,4.9-39.1,13.9c-3.5,3-5.3,7.6-4.9,12.2c1.7,18.8,6.9,51.4,22.2,58.9c2.4,1.2,5.1,1.8,7.9,1.8
				c10.2,0,19.4-8.2,21.4-10.1c0.8-0.5,1.4-1.3,1.8-2.2c1.1-2.6,1.1-7-6.1-19.7c1.9-0.7,3.8-1.7,5.1-3.4c1-1.3,2.1-3.5,1.4-6.5
				c-0.3-2.8-1.4-10.2-5.8-13.2c5.1-1.5,7.6-3.3,8.6-5.9c1.8-5.1,3-19.2-4.6-24.1C51.8,56.5,49.2,56,45.6,56L45.6,56z"/>
		</g>
	</g>
</g>
</svg>
