<?xml version="1.0" encoding="UTF-8"?>
<svg xmlns="http://www.w3.org/2000/svg" viewBox="0 0 211.71 150">
  <defs>
    <style>
      .cls-1 {
        fill: #f4eaea;
      }

      .cls-1, .cls-2 {
        stroke-width: 0px;
      }

      .cls-2 {
        fill: #302a2a;
      }
    </style>
  </defs>
  <g id="Layer_2" data-name="Layer 2">
    <g>
      <path class="cls-2" d="m157.25,11.5c-6.78-5.39-16.64-3.92-21.64,3.15-4.6,6.5-9.12,18.32-9.7,39.77-.92,34.09,38.04,18.8,41.15,4.05,2.17-10.32,5.25-35.01-9.81-46.97Zm-8.08,21.8c-4.16-.42-7.2-4.13-6.78-8.29s4.13-7.2,8.29-6.78,7.2,4.13,6.78,8.29c-.42,4.16-4.13,7.2-8.29,6.78Z"/>
      <path class="cls-2" d="m109.4,12.94c-7.29-4.68-16.95-2.24-21.22,5.29-3.93,6.93-7.25,19.14-5.68,40.53,2.48,34.01,39.73,14.92,41.35-.07,1.13-10.48,1.73-35.36-14.45-45.76Zm-5.87,22.49c-4.18,0-7.57-3.39-7.57-7.57s3.39-7.57,7.57-7.57,7.57,3.39,7.57,7.57-3.39,7.57-7.57,7.57Z"/>
      <path class="cls-2" d="m32.53,21.33c-2.55,2.17-3.82,5.48-3.51,8.81,1.22,13.14,5.78,48.75,19.97,55.69,11.67,5.71,25.07-7.94,25.07-7.94,0,0,4.34-.96-8.19-21.64,0,0,10.4-.2,8.92-6.41,0,0-.85-9.31-4.7-10.92s-12.91,2.48-12.91,2.48v-6.7s19.11-1.74,20.6-5.96,2.23-16.01-2.98-19.36c-4.71-3.03-28.87.53-42.28,11.95Z"/>
    </g>
    <g>
      <path class="cls-2" d="m157.25,11.55c-6.78-5.39-16.64-3.92-21.64,3.15-4.6,6.5-9.12,18.32-9.7,39.77-.92,34.09,38.04,18.8,41.15,4.05,2.17-10.32,5.25-35.01-9.81-46.97Zm-8.08,21.8c-4.16-.42-7.2-4.13-6.78-8.29s4.13-7.2,8.29-6.78,7.2,4.13,6.78,8.29c-.42,4.16-4.13,7.2-8.29,6.78Z"/>
      <path class="cls-2" d="m109.4,12.99c-7.29-4.68-16.95-2.24-21.22,5.29-3.93,6.93-7.25,19.14-5.68,40.53,2.48,34.01,39.73,14.92,41.35-.07,1.13-10.48,1.73-35.36-14.45-45.76Zm-5.87,22.49c-4.18,0-7.57-3.39-7.57-7.57s3.39-7.57,7.57-7.57,7.57,3.39,7.57,7.57-3.39,7.57-7.57,7.57Z"/>
      <path class="cls-2" d="m32.53,21.38c-2.55,2.17-3.82,5.48-3.51,8.81,1.22,13.14,5.78,48.75,19.97,55.69,11.67,5.71,25.07-7.94,25.07-7.94,0,0,4.34-.96-8.19-21.64,0,0,10.4-.2,8.92-6.41,0,0-.85-9.31-4.7-10.92s-12.91,2.48-12.91,2.48v-6.7s19.11-1.74,20.6-5.96,2.23-16.01-2.98-19.36c-4.71-3.03-28.87.53-42.28,11.95Z"/>
    </g>
    <g>
      <path class="cls-1" d="m15.16,74.95c-2.55,2.17-3.82,5.48-3.51,8.81,1.22,13.14,5.78,48.75,19.97,55.69,11.67,5.71,25.07-7.94,25.07-7.94,0,0,4.34-.96-8.19-21.64,0,0,10.4-.2,8.92-6.41,0,0-.85-9.31-4.7-10.92s-12.91,2.48-12.91,2.48v-6.7s19.11-1.74,20.6-5.96,2.23-16.01-2.98-19.36c-4.71-3.03-28.87.53-42.28,11.95Z"/>
      <path class="cls-1" d="m73.25,64.69c-4.87.71-8.58,4.69-9.01,9.59-.66,7.64-1.07,19.63,1.64,28.01,4.28,13.2,4.26,21.65,15.61,25.09s32.1-.25,32.54-7.44.26-16.27-9.91-16.78-11.9.26-11.9.26c0,0,10.01-1.49,7.88-9.59-1.68-6.36-12.91-6.39-12.91-6.39,0,0,15.58-2.02,16.46-8.43s-1.75-14.16-10.08-14.3c-6.02-.1-13.16-1.06-20.33-.01Z"/>
      <path class="cls-1" d="m123.4,86.38s20.77,2.94,23.96-4.08-.3-18.3-13.08-19.92c-12.78-1.62-27.73.91-24.23,21.84,3.5,20.94,24.02,18.53,24.02,18.53,0,0-19.17.57-18.29,8.81s8.66,19.43,26.93,15.25,27.16-37.64-19.31-40.42Z"/>
      <path class="cls-1" d="m168.4,89.56l-8.76-.02c-.83,0-1.67.04-2.49.17-2.37.35-8.68.45-6.22-9.24,3.01-11.84,2.66-16.26,11.58-15.68,7.73.5,28,3.03,34.29,3.83.97.12,1.94.2,2.92.27,2.75.19,9.93,1.48,8.31,9.88-1.99,10.34-2.04,11.69-2.04,11.69,0,0-1.05,7.23-9.36,3.93-1.21-.48-2.43-.93-3.68-1.26l-7.67-2.04,7.76,24.04s2.82,8.57-2.67,14.72c-2.59,2.89-14.43,1.48-20.73.49-3.93-.62-7.18-3.66-8.07-7.78-.58-2.68-.48-6.1,1.28-10.23,4.83-11.35,5.53-22.77,5.53-22.77Z"/>
    </g>
  </g>
  <g id="Layer_3" data-name="Layer 3">
    <path class="cls-2" d="m169.96,91.82l-8.76-.02c-.83,0-1.67.04-2.49.17-2.37.35-8.68.45-6.22-9.24,3.01-11.84,2.66-16.26,11.58-15.68,7.73.5,28,3.03,34.29,3.83.97.12,1.94.2,2.92.27,2.75.19,9.93,1.48,8.31,9.88-1.99,10.34-2.04,11.69-2.04,11.69,0,0-1.05,7.23-9.36,3.93-1.21-.48-2.43-.93-3.68-1.26l-7.67-2.04,7.76,24.04s2.82,8.57-2.67,14.72c-2.59,2.89-14.43,1.48-20.73.49-3.93-.62-7.18-3.66-8.07-7.78-.58-2.68-.48-6.1,1.28-10.23,4.83-11.35,5.53-22.77,5.53-22.77Z"/>
    <path class="cls-2" d="m124.97,88.64s20.77,2.94,23.96-4.08-.3-18.3-13.08-19.92c-12.78-1.62-27.73.91-24.23,21.84,3.5,20.94,24.02,18.53,24.02,18.53,0,0-19.17.57-18.29,8.81s8.66,19.43,26.93,15.25,27.16-37.64-19.31-40.42Z"/>
    <path class="cls-2" d="m74.82,66.96c-4.87.71-8.58,4.69-9.01,9.59-.66,7.64-1.07,19.63,1.64,28.01,4.28,13.2,4.26,21.65,15.61,25.09s32.1-.25,32.54-7.44.26-16.27-9.91-16.78-11.9.26-11.9.26c0,0,10.01-1.49,7.88-9.59-1.68-6.36-12.91-6.39-12.91-6.39,0,0,15.58-2.02,16.46-8.43s-1.75-14.16-10.08-14.3c-6.02-.1-13.16-1.06-20.33-.01Z"/>
    <path class="cls-2" d="m16.72,77.22c-2.55,2.17-3.82,5.48-3.51,8.81,1.22,13.14,5.78,48.75,19.97,55.69,11.67,5.71,25.07-7.94,25.07-7.94,0,0,4.34-.96-8.19-21.64,0,0,10.4-.2,8.92-6.41,0,0-.85-9.31-4.7-10.92s-12.91,2.48-12.91,2.48v-6.7s19.11-1.74,20.6-5.96,2.23-16.01-2.98-19.36c-4.71-3.03-28.87.53-42.28,11.95Z"/>
  </g>
</svg>